<svg width="35" height="35" viewBox="0 0 35 35" fill="none" xmlns="http://www.w3.org/2000/svg">
<path id="Subtract" fill-rule="evenodd" clip-rule="evenodd" d="M17.5 35C27.165 35 35 27.165 35 17.5C35 7.83502 27.165 0 17.5 0C7.83502 0 0 7.83502 0 17.5C0 27.165 7.83502 35 17.5 35ZM21.1661 7.92462C22.9913 8.23324 24.7367 8.77599 26.365 9.51029C26.3792 9.51595 26.3909 9.52653 26.398 9.54009C29.2832 13.7139 30.7071 18.4241 30.175 23.8452C30.1737 23.8567 30.17 23.8677 30.1642 23.8776C30.1583 23.8875 30.1504 23.8961 30.1409 23.9027C28.2057 25.3125 26.0461 26.3851 23.7533 27.0751C23.7372 27.0799 23.7199 27.0797 23.7039 27.0743C23.6879 27.069 23.6739 27.0588 23.6639 27.0453C23.1818 26.3844 22.7433 25.6884 22.3602 24.9573C22.355 24.9472 22.352 24.9361 22.3514 24.9248C22.3508 24.9135 22.3526 24.9021 22.3567 24.8916C22.3609 24.881 22.3672 24.8714 22.3753 24.8635C22.3834 24.8555 22.3932 24.8494 22.4038 24.8456C23.0988 24.588 23.7608 24.2783 24.3972 23.9123C24.4085 23.9055 24.418 23.8961 24.4248 23.8848C24.4316 23.8735 24.4355 23.8606 24.4361 23.8475C24.4368 23.8343 24.4341 23.8211 24.4284 23.8092C24.4228 23.7973 24.4142 23.787 24.4036 23.7792C24.2684 23.6803 24.1354 23.577 24.0077 23.4727C23.996 23.4634 23.9819 23.4576 23.967 23.4559C23.9521 23.4542 23.9371 23.4567 23.9236 23.4632C19.7932 25.3404 15.267 25.3404 11.0877 23.4632C11.0742 23.4571 11.0593 23.4548 11.0447 23.4567C11.03 23.4586 11.0162 23.4645 11.0047 23.4738C10.877 23.577 10.7429 23.6803 10.6088 23.7792C10.5982 23.7872 10.5898 23.7976 10.5843 23.8096C10.5788 23.8217 10.5763 23.8348 10.5772 23.848C10.578 23.8612 10.5821 23.874 10.5891 23.8852C10.5961 23.8964 10.6058 23.9057 10.6173 23.9123C11.2559 24.2753 11.9221 24.5877 12.6096 24.8466C12.6202 24.8504 12.6299 24.8564 12.638 24.8642C12.6461 24.872 12.6525 24.8815 12.6566 24.892C12.6608 24.9025 12.6626 24.9138 12.662 24.925C12.6614 24.9363 12.6584 24.9473 12.6532 24.9573C12.2774 25.6889 11.8409 26.3877 11.3484 27.0464C11.338 27.0594 11.3239 27.069 11.308 27.074C11.292 27.0789 11.275 27.0789 11.259 27.074C8.97018 26.3821 6.81407 25.31 4.88097 23.9027C4.87179 23.8957 4.86413 23.8869 4.85846 23.8768C4.85279 23.8667 4.84922 23.8556 4.84798 23.8441C4.40206 19.1552 5.30987 14.4067 8.62181 9.53796C8.62997 9.52513 8.64185 9.51511 8.65587 9.50923C10.2852 8.77386 12.0306 8.23111 13.8547 7.92249C13.8712 7.91988 13.8881 7.92235 13.9031 7.92958C13.9181 7.9368 13.9306 7.94844 13.9388 7.96293C14.1818 8.38672 14.401 8.82373 14.5954 9.27191C16.5312 8.98269 18.4992 8.98269 20.435 9.27191C20.6095 8.86751 20.8586 8.35562 21.082 7.96293C21.0904 7.94861 21.1029 7.93724 21.118 7.93037C21.133 7.92351 21.1499 7.9215 21.1661 7.92462ZM10.9823 18.456C10.9823 19.8512 12.02 20.9889 13.2779 20.9889C14.5561 20.9889 15.5735 19.8523 15.5735 18.456C15.5937 17.0694 14.5656 15.9232 13.2779 15.9232C11.9997 15.9232 10.9823 17.0598 10.9823 18.456ZM19.4697 18.456C19.4697 19.8512 20.5063 20.9889 21.7653 20.9889C23.0541 20.9889 24.0609 19.8523 24.0609 18.456C24.0811 17.0694 23.053 15.9232 21.7653 15.9232C20.4861 15.9232 19.4697 17.0598 19.4697 18.456Z" fill="white"/>
</svg>
